<svg width="1216" height="736" viewBox="0 0 1216 736" fill="none" xmlns="http://www.w3.org/2000/svg" xmlns:xlink="http://www.w3.org/1999/xlink">
<g clip-path="url(#clip0_601_318)">
<path d="M1216 690.35V685.75H0V690.35C0 703.791 0 710.512 2.61584 715.646C4.91681 720.162 8.58832 723.833 13.1042 726.134C18.2381 728.75 24.9587 728.75 38.4 728.75H1177.6C1191.04 728.75 1197.76 728.75 1202.9 726.134C1207.41 723.833 1211.08 720.162 1213.38 715.646C1216 710.512 1216 703.791 1216 690.35Z" fill="url(#paint0_linear_601_318)"/>
<path d="M1146 731.75C1147.6 731.35 1148.67 729.583 1149 728.75H1069.5C1069.83 729.583 1070.9 731.35 1072.5 731.75C1072.67 732.917 1073.4 735.25 1075 735.25H1143.5C1145.1 735.25 1145.83 732.917 1146 731.75Z" fill="url(#paint1_linear_601_318)"/>
<path fill-rule="evenodd" clip-rule="evenodd" d="M1145.93 732.156V732H1072.54C1072.77 733.22 1073.51 735.25 1075 735.25H1143.5C1144.93 735.25 1145.67 733.385 1145.93 732.156Z" fill="url(#paint2_linear_601_318)"/>
<path fill-rule="evenodd" clip-rule="evenodd" d="M1145.93 732V732.156C1145.85 732.504 1145.74 732.902 1145.59 733.295H1072.91C1072.73 732.842 1072.61 732.381 1072.54 732H1145.93Z" fill="#383838"/>
<path d="M142.5 731.75C144.1 731.35 145.167 729.583 145.5 728.75H66C66.3333 729.583 67.4 731.35 69 731.75C69.1667 732.917 69.9 735.25 71.5 735.25H140C141.6 735.25 142.333 732.917 142.5 731.75Z" fill="url(#paint3_linear_601_318)"/>
<path fill-rule="evenodd" clip-rule="evenodd" d="M142.427 732.156V732H69.0413C69.269 733.22 70.0074 735.25 71.4999 735.25H140C141.43 735.25 142.168 733.385 142.427 732.156Z" fill="url(#paint4_linear_601_318)"/>
<path fill-rule="evenodd" clip-rule="evenodd" d="M142.428 732V732.156C142.354 732.504 142.243 732.902 142.088 733.295H69.4123C69.2338 732.842 69.1127 732.381 69.0415 732H142.428Z" fill="#383838"/>
<path d="M502 685.75H713.5C713.5 694.863 706.113 702.25 697 702.25H518.5C509.387 702.25 502 694.863 502 685.75Z" fill="url(#paint5_linear_601_318)"/>
<path d="M712.992 686.25C712.728 694.855 705.669 701.75 697 701.75H518.5C509.831 701.75 502.772 694.855 502.508 686.25H712.992Z" stroke="white" stroke-opacity="0.1"/>
<rect x="1121.5" y="685.75" width="81" height="33" fill="url(#paint6_linear_601_318)"/>
<rect width="84" height="33" transform="matrix(-1 0 0 1 84.5 685.75)" fill="url(#paint7_linear_601_318)"/>
<g filter="url(#filter0_f_601_318)">
<path d="M1192.5 685.75H1205.5V705.862C1205.5 710.219 1201.97 713.75 1197.61 713.75C1194.79 713.75 1192.5 711.461 1192.5 708.638V685.75Z" fill="#D2D2DA"/>
</g>
<g filter="url(#filter1_f_601_318)">
<path d="M20.5 685.75H9.5V707.076C9.5 710.762 12.4881 713.75 16.1742 713.75C18.5633 713.75 20.5 711.813 20.5 709.424V685.75Z" fill="#D2D2DA"/>
</g>
</g>
<path d="M608.5 2.75H1078.5C1093.96 2.75 1106.5 15.286 1106.5 30.75V683.75H608.5H608H110V30.75C110 15.286 122.536 2.75 138 2.75H608H608.5Z" fill="black"/>
<path fill-rule="evenodd" clip-rule="evenodd" d="M1078.5 4.75H138C123.641 4.75 112 16.3906 112 30.75V681.75H1104.5V30.75C1104.5 16.3906 1092.86 4.75 1078.5 4.75ZM1078.5 2.75H138C122.536 2.75 110 15.286 110 30.75V683.75H1106.5V30.75C1106.5 15.286 1093.96 2.75 1078.5 2.75Z" fill="#201F24"/>
<path fill-rule="evenodd" clip-rule="evenodd" d="M1108.5 685.75H108V30.75C108 14.1815 121.431 0.75 138 0.75H1078.5C1095.07 0.75 1108.5 14.1815 1108.5 30.75V685.75ZM1078.5 2.75H138C122.536 2.75 110 15.286 110 30.75V683.75H1106.5V30.75C1106.5 15.286 1093.96 2.75 1078.5 2.75Z" fill="#7D7D7F"/>
<path d="M112.846 657.75H1103.5V676.75C1103.5 678.959 1101.71 680.75 1099.5 680.75H116.846C114.637 680.75 112.846 678.959 112.846 676.75V657.75Z" fill="url(#paint8_linear_601_318)"/>
<path d="M124.5 32.75C124.5 25.018 130.768 18.75 138.5 18.75H1077.5C1085.23 18.75 1091.5 25.018 1091.5 32.75V646.75H124.5V32.75Z" fill="url(#pattern0_601_318)"/>
<path d="M667 21.25C667 18.75 670 18.75 671.5 18.75H544.5C546 18.75 549 18.75 549 21.25V30.75C549 35.1683 552.582 38.75 557 38.75H659C663.418 38.75 667 35.1683 667 30.75V21.25Z" fill="black"/>
<circle cx="608" cy="24.8407" r="3.77901" fill="#0F0F0F" stroke="#151515" stroke-width="0.260621"/>
<circle cx="607.609" cy="25.7528" r="0.912175" fill="#16181E"/>
<circle cx="607.609" cy="24.4497" r="0.912175" fill="#0A0B0D"/>
<circle opacity="0.6" cx="608" cy="24.8406" r="1.30311" fill="#1F2531"/>
<defs>
<filter id="filter0_f_601_318" x="1184.5" y="677.75" width="29" height="44" filterUnits="userSpaceOnUse" color-interpolation-filters="sRGB">
<feFlood flood-opacity="0" result="BackgroundImageFix"/>
<feBlend mode="normal" in="SourceGraphic" in2="BackgroundImageFix" result="shape"/>
<feGaussianBlur stdDeviation="4" result="effect1_foregroundBlur_601_318"/>
</filter>
<filter id="filter1_f_601_318" x="-0.5" y="675.75" width="31" height="48" filterUnits="userSpaceOnUse" color-interpolation-filters="sRGB">
<feFlood flood-opacity="0" result="BackgroundImageFix"/>
<feBlend mode="normal" in="SourceGraphic" in2="BackgroundImageFix" result="shape"/>
<feGaussianBlur stdDeviation="5" result="effect1_foregroundBlur_601_318"/>
</filter>
<pattern id="pattern0_601_318" patternContentUnits="objectBoundingBox" width="1" height="1">
<use xlink:href="#image0_601_318" transform="matrix(0.001 0 0 0.00153981 0 -0.269904)"/>
</pattern>
<linearGradient id="paint0_linear_601_318" x1="608" y1="685.75" x2="608" y2="728.75" gradientUnits="userSpaceOnUse">
<stop stop-color="#AEAFB4"/>
<stop offset="0.192522" stop-color="#AFB0B5"/>
<stop offset="0.376094" stop-color="#AFB0B5"/>
<stop offset="0.598958" stop-color="#7D7E82"/>
<stop offset="0.713542" stop-color="#696A6F"/>
<stop offset="0.852125" stop-color="#838489"/>
<stop offset="0.931356" stop-color="#ABACB0"/>
</linearGradient>
<linearGradient id="paint1_linear_601_318" x1="1069.5" y1="732" x2="1149" y2="732" gradientUnits="userSpaceOnUse">
<stop stop-color="#8C8D91"/>
<stop offset="0.173014" stop-color="#525358"/>
<stop offset="0.31824" stop-color="#78797D"/>
<stop offset="0.465029" stop-color="#A0A0A2"/>
<stop offset="0.691458" stop-color="#9A9A9C"/>
<stop offset="0.825754" stop-color="#4F5055"/>
<stop offset="0.941311" stop-color="#9E9EA0"/>
<stop offset="1" stop-color="#848589"/>
</linearGradient>
<linearGradient id="paint2_linear_601_318" x1="1072.54" y1="733.625" x2="1145.93" y2="733.625" gradientUnits="userSpaceOnUse">
<stop stop-color="#575757"/>
<stop offset="0.0827846" stop-color="#2D2D2D"/>
<stop offset="0.490477" stop-color="#4E4E4E"/>
<stop offset="0.824814" stop-color="#2A2A2A"/>
<stop offset="1" stop-color="#5C5C5C"/>
</linearGradient>
<linearGradient id="paint3_linear_601_318" x1="66" y1="732" x2="145.5" y2="732" gradientUnits="userSpaceOnUse">
<stop stop-color="#8C8D91"/>
<stop offset="0.173014" stop-color="#525358"/>
<stop offset="0.31824" stop-color="#78797D"/>
<stop offset="0.465029" stop-color="#A0A0A2"/>
<stop offset="0.691458" stop-color="#9A9A9C"/>
<stop offset="0.825754" stop-color="#4F5055"/>
<stop offset="0.941311" stop-color="#9E9EA0"/>
<stop offset="1" stop-color="#848589"/>
</linearGradient>
<linearGradient id="paint4_linear_601_318" x1="69.0413" y1="733.625" x2="142.427" y2="733.625" gradientUnits="userSpaceOnUse">
<stop stop-color="#575757"/>
<stop offset="0.0827846" stop-color="#2D2D2D"/>
<stop offset="0.490477" stop-color="#4E4E4E"/>
<stop offset="0.824814" stop-color="#2A2A2A"/>
<stop offset="1" stop-color="#5C5C5C"/>
</linearGradient>
<linearGradient id="paint5_linear_601_318" x1="502.5" y1="693.75" x2="713.5" y2="693.75" gradientUnits="userSpaceOnUse">
<stop stop-color="#25262B"/>
<stop offset="0.015659" stop-color="#606166"/>
<stop offset="0.035819" stop-color="#9FA0A4"/>
<stop offset="0.0504351" stop-color="#C8C8CE"/>
<stop offset="0.479167" stop-color="#D7D8DD"/>
<stop offset="0.941214" stop-color="#CBCBD3"/>
<stop offset="0.970403" stop-color="#A7A8AC"/>
<stop offset="0.980129" stop-color="#595A5E"/>
<stop offset="1" stop-color="#27282C"/>
</linearGradient>
<linearGradient id="paint6_linear_601_318" x1="1202.5" y1="702.75" x2="1121.5" y2="702.75" gradientUnits="userSpaceOnUse">
<stop stop-color="#65666B" stop-opacity="0"/>
<stop offset="0.259918" stop-color="#65666B"/>
<stop offset="1" stop-color="#65666B" stop-opacity="0"/>
</linearGradient>
<linearGradient id="paint7_linear_601_318" x1="84" y1="17" x2="2.87514e-08" y2="17" gradientUnits="userSpaceOnUse">
<stop stop-color="#65666B" stop-opacity="0"/>
<stop offset="0.259918" stop-color="#65666B"/>
<stop offset="1" stop-color="#65666B" stop-opacity="0"/>
</linearGradient>
<linearGradient id="paint8_linear_601_318" x1="607.5" y1="657.75" x2="607.5" y2="680.75" gradientUnits="userSpaceOnUse">
<stop stop-color="#222222"/>
<stop offset="0.0852114" stop-color="#242424"/>
<stop offset="0.830431" stop-color="#242424"/>
<stop offset="1" stop-color="#201F24"/>
</linearGradient>
<clipPath id="clip0_601_318">
<rect width="1216" height="49.5" fill="white" transform="translate(0 685.75)"/>
</clipPath>
<image id="image0_601_318" width="1000" height="1000" preserveAspectRatio="none" xlink:href="/macbook-connect.png" />
</defs>
</svg>
